<?xml version="1.0" standalone="no"?>
<!DOCTYPE svg PUBLIC "-//W3C//DTD SVG 20010904//EN"
 "http://www.w3.org/TR/2001/REC-SVG-20010904/DTD/svg10.dtd">
<svg version="1.0" xmlns="http://www.w3.org/2000/svg"
 width="2000.000000pt" height="500.000000pt" viewBox="0 0 2000.000000 500.000000"
 preserveAspectRatio="xMidYMid meet">
<metadata>
Created by potrace 1.16, written by Peter Selinger 2001-2019
</metadata>
<g transform="translate(0.000000,500.000000) scale(0.100000,-0.100000)"
fill="#000000" stroke="none">
<path d="M2165 4496 c-133 -63 -238 -185 -367 -422 -102 -187 -1127 -2162
-1266 -2439 -122 -243 -145 -302 -163 -421 -10 -69 -10 -90 5 -155 47 -208
168 -386 339 -497 l72 -46 1555 -4 1555 -4 110 52 c94 45 121 64 186 129 62
62 85 94 125 176 l49 100 3 163 c4 187 -7 240 -78 372 -22 41 -74 145 -117
230 -42 85 -156 308 -253 495 -97 187 -297 572 -445 855 -479 922 -579 1109
-640 1195 -52 74 -171 187 -224 214 -52 27 -144 41 -271 41 -99 0 -110 -2
-175 -34z m366 -112 c112 -35 196 -141 362 -450 70 -131 385 -738 609 -1174
56 -107 120 -231 143 -275 23 -44 91 -174 150 -290 60 -115 144 -277 187 -360
102 -194 236 -469 254 -519 9 -25 15 -86 16 -160 1 -103 -2 -129 -21 -177 -46
-118 -168 -260 -257 -300 -92 -41 -185 -44 -1549 -42 -740 1 -1362 6 -1444 11
-131 10 -149 13 -210 43 -214 105 -326 388 -246 625 27 80 85 200 290 594 73
140 173 334 222 430 50 96 157 303 238 460 200 387 295 570 485 940 90 173
183 350 208 393 90 157 206 250 335 266 76 10 166 4 228 -15z"/>
<path d="M2267 4299 c-21 -5 -58 -22 -82 -39 -78 -53 -76 -51 -377 -615 -47
-88 -140 -268 -208 -400 -68 -132 -209 -406 -315 -610 -736 -1417 -675 -1293
-688 -1402 -20 -169 16 -296 114 -395 55 -55 82 -64 240 -79 168 -16 2334 -24
2654 -10 361 17 402 29 479 146 84 126 109 258 71 381 -20 62 -278 584 -493
994 -70 135 -168 322 -216 415 -49 94 -112 215 -141 270 -29 55 -94 181 -145
280 -497 964 -504 976 -601 1026 -81 41 -209 58 -292 38z m238 -1184 c453 -79
771 -521 741 -1030 -14 -244 -84 -416 -244 -604 -85 -99 -167 -166 -263 -216
-126 -65 -186 -78 -364 -79 -167 -1 -217 9 -336 69 -335 169 -529 497 -529
895 0 337 135 618 394 818 61 47 221 123 310 147 68 18 184 18 291 0z"/>
<path d="M2300 3034 c-14 -2 -52 -9 -85 -14 -78 -14 -227 -88 -307 -154 -140
-116 -236 -278 -290 -486 -18 -70 -22 -113 -22 -240 0 -139 3 -164 27 -245 29
-94 84 -214 124 -268 13 -18 45 -61 71 -97 118 -161 337 -270 544 -270 291 1
565 193 704 496 53 114 75 211 81 354 11 277 -83 509 -286 710 -135 134 -282
201 -466 214 -38 2 -81 2 -95 0z m181 -254 c206 -39 397 -236 445 -458 18 -86
18 -219 -1 -306 -44 -206 -212 -393 -404 -450 -67 -20 -207 -21 -276 -2 -190
50 -355 229 -409 442 -20 79 -20 239 0 324 40 170 161 328 308 401 116 57 217
71 337 49z"/>
<path d="M2285 2643 c-11 -2 -53 -20 -92 -40 -90 -44 -152 -108 -198 -204 -57
-120 -65 -192 -36 -348 25 -137 129 -272 253 -331 58 -27 72 -30 168 -30 90 0
112 4 157 24 105 49 205 170 243 294 24 78 27 212 5 295 -54 206 -225 349
-414 346 -36 -1 -75 -3 -86 -6z m-24 -151 c62 -66 60 -163 -6 -229 -104 -104
-269 54 -198 190 18 36 35 52 78 73 44 21 85 10 126 -34z"/>
<path d="M4640 3998 c0 -172 7 -1001 15 -1843 8 -841 15 -1549 15 -1572 l0
-43 380 0 380 0 -6 748 -7 749 115 7 c193 11 327 61 467 172 142 113 277 315
327 489 26 89 33 741 9 876 -56 329 -326 631 -633 710 -69 17 -114 19 -569 19
l-493 0 0 -312z m885 -472 c55 -36 60 -60 63 -329 3 -237 3 -249 -18 -292 -30
-62 -72 -95 -121 -95 l-39 0 0 371 0 372 45 -5 c25 -3 56 -13 70 -22z"/>
<path d="M7070 4304 c0 -3 -4 -35 -10 -72 -5 -37 -34 -245 -65 -462 -30 -217
-77 -557 -104 -755 -28 -198 -102 -736 -166 -1195 -64 -459 -129 -929 -145
-1044 -17 -115 -30 -215 -30 -222 0 -12 64 -14 374 -14 l374 0 6 37 c3 21 10
110 16 198 6 88 13 166 15 173 3 8 31 12 95 12 l90 0 1 -37 c1 -21 6 -114 12
-208 l12 -170 378 -3 378 -2 -6 32 c-3 18 -86 598 -185 1288 -98 690 -217
1523 -264 1849 -47 327 -86 596 -86 598 0 2 -155 3 -345 3 -190 0 -345 -3
-345 -6z m396 -2732 c20 -227 34 -415 31 -418 -2 -3 -38 -4 -79 -2 l-74 3 38
420 c20 231 38 425 39 430 4 23 10 -41 45 -433z"/>
<path d="M8460 2703 c0 -885 3 -1733 7 -1885 l6 -278 374 0 373 0 2 435 3 436
136 -433 136 -433 332 -3 331 -2 0 1885 0 1885 -380 0 -380 0 -1 -462 0 -463
-137 463 -136 462 -333 0 -333 0 0 -1607z"/>
<path d="M11175 4290 c-103 -27 -169 -55 -248 -106 -176 -114 -308 -287 -369
-486 l-23 -73 -3 -1175 c-2 -1060 -1 -1182 14 -1250 33 -152 97 -271 208 -388
121 -127 241 -200 401 -243 104 -28 316 -31 417 -6 292 72 529 295 617 582 13
40 26 121 31 190 5 66 10 593 10 1172 0 1126 0 1121 -50 1258 -37 100 -99 194
-183 282 -127 132 -250 205 -411 243 -110 27 -311 27 -411 0z m271 -766 l26
-25 -4 -1072 c-3 -590 -8 -1079 -12 -1088 -21 -47 -128 -50 -158 -5 -4 6 -8
496 -8 1089 l0 1078 25 24 c34 35 96 35 131 -1z"/>
<path d="M12530 3543 c0 -423 -3 -1271 -7 -1886 l-6 -1117 381 0 382 0 0 538
c0 297 3 633 7 749 l6 210 109 7 c60 4 143 16 184 26 222 57 435 244 555 485
76 154 80 178 91 520 14 464 2 572 -86 750 -113 228 -325 410 -544 466 -69 17
-114 19 -574 19 l-498 0 0 -767z m870 -11 c65 -32 70 -55 70 -336 0 -232 -1
-253 -21 -293 -29 -60 -71 -93 -120 -93 l-39 0 0 370 0 370 38 0 c20 0 53 -8
72 -18z"/>
<path d="M14430 4043 c0 -148 -3 -319 -7 -380 l-6 -113 178 0 178 0 -6 -387
c-4 -214 -10 -891 -13 -1505 l-7 -1118 375 0 376 0 6 133 c3 72 8 485 11 917
3 432 8 1049 12 1373 l6 587 174 0 173 0 0 380 0 380 -725 0 -725 0 0 -267z"/>
<path d="M16076 4298 c-2 -7 -9 -600 -15 -1318 -7 -718 -14 -1560 -18 -1873
l-6 -567 785 0 785 0 6 263 c4 144 7 315 7 380 l0 117 -405 0 -405 0 0 370 0
370 220 0 220 0 2 350 c1 193 2 365 2 383 l1 32 -219 3 -219 2 6 152 c4 83 7
249 7 370 l0 218 410 0 410 0 0 178 c0 97 3 268 7 380 l6 202 -792 0 c-625 0
-792 -3 -795 -12z"/>
<path d="M18651 4299 c-315 -62 -587 -325 -668 -647 -24 -94 -24 -421 0 -582
32 -211 85 -373 165 -509 32 -53 96 -121 288 -307 261 -252 316 -319 367 -447
39 -98 67 -249 67 -365 0 -97 -1 -101 -26 -121 -15 -12 -41 -21 -60 -21 -87 0
-92 18 -86 291 l5 219 -382 0 -381 0 -2 -177 c-6 -364 0 -426 53 -564 94 -246
325 -445 584 -505 103 -24 300 -24 397 -1 298 73 545 310 630 604 21 71 23 98
23 298 -1 310 -35 478 -141 693 -55 111 -60 117 -291 365 -130 139 -256 279
-280 312 -61 82 -118 197 -148 301 -26 90 -50 299 -39 346 13 62 96 88 148 47
l26 -20 0 -235 0 -234 378 0 379 0 7 234 c9 311 -4 402 -79 561 -103 222 -312
395 -549 455 -85 22 -296 27 -385 9z"/>
</g>
</svg>
